<svg id="Capa_1" enable-background="new 0 0 512 512" height="512" viewBox="0 0 512 512" width="512" xmlns="http://www.w3.org/2000/svg"><g><path d="m464.5 0h-357.5c-4.143 0-7.5 3.357-7.5 7.5s3.357 7.5 7.5 7.5h357.5c17.921 0 32.5 14.579 32.5 32.5v417c0 17.921-14.579 32.5-32.5 32.5h-417c-17.921 0-32.5-14.579-32.5-32.5v-417c0-17.921 14.579-32.5 32.5-32.5h24.5c4.143 0 7.5-3.357 7.5-7.5s-3.357-7.5-7.5-7.5h-24.5c-26.191 0-47.5 21.309-47.5 47.5v417c0 26.191 21.309 47.5 47.5 47.5h417c26.191 0 47.5-21.309 47.5-47.5v-417c0-26.191-21.309-47.5-47.5-47.5z"/><path d="m197.192 42h-135.384c-10.922 0-19.808 8.886-19.808 19.808v135.385c0 10.921 8.886 19.807 19.808 19.807h45.192v78h-45.192c-10.922 0-19.808 8.886-19.808 19.808v135.385c0 10.921 8.886 19.807 19.808 19.807h135.385c10.922 0 19.808-8.886 19.808-19.808v-40.192h78v40.192c0 10.922 8.886 19.808 19.808 19.808h135.385c10.922 0 19.808-8.886 19.808-19.808v-135.384c0-10.922-8.886-19.808-19.808-19.808h-45.194v-16c0-4.143-3.357-7.5-7.5-7.5s-7.5 3.357-7.5 7.5v61.676c-2.437-.436-4.94-.676-7.5-.676s-5.063.24-7.5.676v-169.352c2.437.436 4.94.676 7.5.676s5.063-.24 7.5-.676v72.676c0 4.143 3.357 7.5 7.5 7.5s7.5-3.357 7.5-7.5v-27h45.192c10.922 0 19.808-8.886 19.808-19.808v-135.384c0-10.922-8.886-19.808-19.808-19.808h-135.384c-10.922 0-19.808 8.886-19.808 19.808v40.192h-78v-40.192c0-10.922-8.886-19.808-19.808-19.808zm144.687 75c-1.219 3.954-1.879 8.151-1.879 12.5 0 .84.031 1.672.08 2.5h-66.08c-4.143 0-7.5 3.357-7.5 7.5s3.357 7.5 7.5 7.5h21v50.192c0 10.922 8.886 19.808 19.808 19.808h45.192v78h-45.192c-10.922 0-19.808 8.886-19.808 19.808v50.192h-78v-10c0-4.143-3.357-7.5-7.5-7.5s-7.5 3.357-7.5 7.5v10h-33.786c-3.474-7.654-9.147-14.102-16.214-18.531v-36.469h45.192c2.651 0 4.808 2.156 4.808 4.808v5.192c0 4.143 3.357 7.5 7.5 7.5s7.5-3.357 7.5-7.5v-5.192c0-10.922-8.886-19.808-19.808-19.808h-45.192v-78h45.192c10.922 0 19.808-8.886 19.808-19.808v-50.192h22c4.143 0 7.5-3.357 7.5-7.5s-3.357-7.5-7.5-7.5h-67.08c.048-.828.08-1.66.08-2.5 0-4.349-.659-8.546-1.879-12.5zm0 278h-171.758c1.219-3.954 1.879-8.151 1.879-12.5 0-.84-.031-1.672-.08-2.5h168.16c-.048.828-.08 1.66-.08 2.5 0 4.349.659 8.546 1.879 12.5zm-189.879-229.469c7.068-4.429 12.74-10.877 16.214-18.531h33.786v50.192c0 2.651-2.156 4.808-4.808 4.808h-45.192zm5-36.031c0 15.163-12.337 27.5-27.5 27.5s-27.5-12.337-27.5-27.5 12.337-27.5 27.5-27.5 27.5 12.337 27.5 27.5zm-35 41.824c2.437.436 4.94.676 7.5.676s5.063-.24 7.5-.676v169.352c-2.437-.436-4.94-.676-7.5-.676s-5.063.24-7.5.676zm7.5 183.676c15.163 0 27.5 12.337 27.5 27.5s-12.337 27.5-27.5 27.5-27.5-12.337-27.5-27.5 12.337-27.5 27.5-27.5zm-67.692-153c-2.651 0-4.808-2.156-4.808-4.808v-135.384c0-2.652 2.156-4.808 4.808-4.808h135.385c2.651 0 4.808 2.156 4.808 4.808v40.192h-40.134c-7.802-9.168-19.412-15-32.366-15-23.436 0-42.501 19.065-42.501 42.5 0 15.176 8.001 28.511 20 36.031v36.469zm140.192 248.192c0 2.651-2.156 4.808-4.808 4.808h-135.384c-2.651 0-4.808-2.156-4.808-4.808v-135.384c0-2.651 2.156-4.808 4.808-4.808h45.192v36.469c-11.999 7.52-20 20.855-20 36.031 0 23.435 19.065 42.5 42.5 42.5 12.953 0 24.564-5.832 32.366-15h40.134zm203-140.192h45.192c2.651 0 4.808 2.156 4.808 4.808v135.385c0 2.651-2.156 4.808-4.808 4.808h-135.384c-2.651 0-4.808-2.156-4.808-4.808v-40.193h40.134c7.802 9.168 19.412 15 32.366 15 23.435 0 42.5-19.065 42.5-42.5 0-15.176-8.001-28.511-20-36.031zm5 72.5c0 15.163-12.337 27.5-27.5 27.5s-27.5-12.337-27.5-27.5 12.337-27.5 27.5-27.5 27.5 12.337 27.5 27.5zm-66.214-17.5h-33.786v-50.192c0-2.651 2.156-4.808 4.808-4.808h45.192v36.469c-7.068 4.429-12.74 10.877-16.214 18.531zm16.214-163h-45.192c-2.651 0-4.808-2.156-4.808-4.808v-50.192h33.786c3.474 7.654 9.147 14.102 16.214 18.531zm-5-72.5c0-15.163 12.337-27.5 27.5-27.5s27.5 12.337 27.5 27.5-12.337 27.5-27.5 27.5-27.5-12.337-27.5-27.5zm-45-67.692c0-2.651 2.156-4.808 4.808-4.808h135.385c2.651 0 4.808 2.156 4.808 4.808v135.385c0 2.651-2.156 4.808-4.808 4.808h-45.193v-36.469c11.999-7.52 20-20.855 20-36.031 0-23.435-19.065-42.5-42.5-42.5-12.953 0-24.564 5.832-32.366 15h-40.134z"/></g></svg>