<?xml version="1.0" encoding="iso-8859-1"?>
<!-- Generator: Adobe Illustrator 19.0.0, SVG Export Plug-In . SVG Version: 6.00 Build 0)  -->
<svg version="1.1" id="Capa_1" xmlns="http://www.w3.org/2000/svg" xmlns:xlink="http://www.w3.org/1999/xlink" x="0px" y="0px"
	 viewBox="0 0 512 512" style="enable-background:new 0 0 512 512;" xml:space="preserve">
<g>
	<g>
		<circle cx="91.47" cy="169.75" r="7.5"/>
	</g>
</g>
<g>
	<g>
		<circle cx="91.54" cy="148.25" r="7.5"/>
	</g>
</g>
<g>
	<g>
		<circle cx="91.47" cy="289.06" r="7.5"/>
	</g>
</g>
<g>
	<g>
		<circle cx="91.54" cy="267.56" r="7.5"/>
	</g>
</g>
<g>
	<g>
		<circle cx="91.47" cy="408.37" r="7.5"/>
	</g>
</g>
<g>
	<g>
		<circle cx="91.54" cy="386.87" r="7.5"/>
	</g>
</g>
<g>
	<g>
		<path d="M463.93,392.097L386.421,314.6c13.016-19.236,20.017-41.898,20.017-65.639c0-31.375-12.219-60.872-34.405-83.058
			c-14.816-14.815-32.639-24.831-51.522-30.061V99c0-12.39-14.557-21.722-44.502-28.526c-23.675-5.381-54.511-8.51-87.503-8.923
			v-7.599c11.529-3.273,20.001-13.889,20.001-26.452c0-15.163-12.337-27.5-27.501-27.5s-27.501,12.337-27.501,27.5
			c0,12.563,8.472,23.178,20.001,26.452v7.599c-32.993,0.413-63.828,3.542-87.503,8.923C56.057,77.278,41.5,86.61,41.5,99v74
			c0,9.313,8.227,16.899,25.03,22.982C49.736,202.048,41.5,209.659,41.5,219v37c0,4.143,3.358,7.5,7.5,7.5
			c4.142,0,7.5-3.357,7.5-7.5v-18.353c7.066,3.689,16.651,6.919,28.825,9.724c23.298,5.368,53.758,8.542,86.42,9.048
			c1.328,21.337,8.344,41.58,20.317,58.968c-3.663,0.07-7.351,0.113-11.057,0.113c-30.419,0-59.932-2.426-83.141-6.831
			c-0.049-0.011-0.1-0.017-0.149-0.027c-0.017-0.003-0.034-0.006-0.05-0.009C60.235,301.507,56.516,293,56.501,293v-5.125
			c0-4.143-3.358-7.5-7.5-7.5c-4.142,0-7.5,3.357-7.5,7.5V293c0,9.332,8.221,16.937,24.981,23c-16.76,6.063-24.981,13.668-24.981,23
			v74c0,12.391,14.557,21.723,44.502,28.527c23.675,5.38,54.51,8.509,87.503,8.922v7.599c-11.529,3.273-20.001,13.889-20.001,26.452
			c0,15.163,12.337,27.5,27.501,27.5s27.501-12.337,27.501-27.5c0-12.563-8.472-23.178-20.001-26.452v-7.599
			c32.993-0.413,63.828-3.542,87.503-8.922c29.945-6.805,44.502-16.137,44.502-28.527v-5.063c0-4.143-3.358-7.5-7.5-7.5
			c-4.142,0-7.5,3.357-7.5,7.5l0.008,4.973c-0.018,0.073-3.252,7.629-35.274,14.53c-24.116,5.197-55.808,8.06-89.239,8.06
			c-33.431,0-65.123-2.862-89.239-8.06C59.78,420.547,56.518,413,56.501,413v-55.353c7.197,3.759,17.004,7.041,29.502,9.88
			c25.461,5.786,59.201,8.973,95.003,8.973c38.362,0,74.892-3.755,100.533-10.315c2.464,0.153,4.941,0.239,7.432,0.239
			c5.583,0,11.105-0.395,16.539-1.155v10.606c0,4.143,3.358,7.5,7.5,7.5c4.142,0,7.5-3.357,7.5-7.5v-13.711
			c12.132-3.36,23.624-8.668,34.102-15.757l77.504,77.511c4.384,4.376,10.142,6.564,15.901,6.564c5.762,0,11.526-2.19,15.917-6.573
			C472.689,415.139,472.689,400.87,463.93,392.097z M193.506,484.5c0,6.893-5.608,12.5-12.5,12.5c-6.892,0-12.5-5.607-12.5-12.5
			s5.608-12.5,12.5-12.5C187.898,472,193.506,477.607,193.506,484.5z M168.505,27.5c0-6.893,5.608-12.5,12.5-12.5
			c6.892,0,12.5,5.607,12.5,12.5s-5.608,12.5-12.5,12.5C174.113,40,168.505,34.393,168.505,27.5z M171.75,241.416
			c-30.305-0.482-58.71-3.327-80.638-8.119C61.563,226.84,56.99,219.869,56.534,219c0.484-0.917,5.635-8.686,39.752-15.362
			c23.152,4.297,51.605,6.691,81.645,6.845C174.512,220.375,172.422,230.758,171.75,241.416z M181.007,195.499
			c-33.431,0-65.123-2.862-89.239-8.06C59.78,180.547,56.518,173,56.501,173v-55.363c4.618,2.407,10.313,4.622,17.11,6.659
			c17.717,5.31,41.713,9.099,69.391,10.96c4.145,0.265,7.708-2.848,7.986-6.98c0.278-4.133-2.847-7.708-6.98-7.986
			c-25.394-1.707-47.534-5.082-64.027-9.76c-17.652-5.007-22.89-9.987-23.454-11.512c0.407-0.797,4.912-7.921,35.243-14.458
			c22.304-4.807,51.092-7.611,81.737-8.006V99c0,4.143,3.358,7.5,7.5,7.5c4.142,0,7.5-3.357,7.5-7.5V76.554
			c30.645,0.395,59.433,3.199,81.737,8.006c30.124,6.492,34.773,13.564,35.233,14.44c-0.46,0.876-5.11,7.948-35.233,14.44
			c-24.117,5.197-55.808,8.06-89.237,8.06c-2.484,0-4.953-0.016-7.403-0.047c-4.118-0.097-7.543,3.259-7.597,7.401
			c-0.054,4.143,3.26,7.543,7.403,7.597c2.515,0.033,5.048,0.049,7.597,0.049c35.802,0,69.542-3.187,95.004-8.974
			c12.497-2.84,22.304-6.122,29.501-9.88v15.073c-35.322-4.981-72.492,6.078-99.6,33.184c-8.816,8.815-16.052,18.789-21.579,29.572
			C183.222,195.482,182.125,195.499,181.007,195.499z M181.005,361.5c-33.431,0-65.123-2.862-89.239-8.06
			C61.64,346.947,56.994,339.876,56.534,339c0.485-0.917,5.64-8.689,39.78-15.367c23.906,4.428,53.895,6.867,84.691,6.867
			c7.765,0,15.468-0.16,22.975-0.458c0.635,0.665,1.277,1.325,1.93,1.977c11.227,11.227,24.328,19.896,38.596,25.726
			C225.368,360.181,203.552,361.5,181.005,361.5z M311.894,348.861c-0.367,0.055-0.727,0.129-1.075,0.235
			c-7.099,1.534-14.411,2.327-21.847,2.327c-2.494,0.001-4.972-0.09-7.434-0.265c-0.147-0.014-0.294-0.028-0.443-0.033
			c-24.401-1.843-47.092-12.228-64.577-29.713c-19.353-19.352-30.011-45.082-30.011-72.451c0-14.901,3.166-29.313,9.168-42.478
			c0.145-0.271,0.273-0.551,0.385-0.84c4.993-10.691,11.866-20.542,20.458-29.133c19.976-19.975,46.215-29.962,72.454-29.962
			s52.479,9.987,72.455,29.962c19.353,19.352,30.011,45.082,30.011,72.45c0,27.369-10.658,53.1-30.011,72.451
			C347.597,335.241,330.509,344.628,311.894,348.861z M453.327,413.303c-2.925,2.921-7.687,2.92-10.608,0.005l-76.155-76.162
			c1.866-1.646,3.693-3.351,5.468-5.126c1.775-1.775,3.479-3.602,5.126-5.468l76.16,76.148
			C456.239,405.625,456.239,410.386,453.327,413.303z"/>
	</g>
</g>
<g>
	<g>
		<path d="M350.819,187.116c-16.52-16.519-38.484-25.616-61.847-25.616c-23.363,0-45.327,9.098-61.847,25.616
			c-16.52,16.52-25.618,38.483-25.618,61.846c0,23.361,9.098,45.325,25.618,61.845c16.521,16.52,38.485,25.617,61.847,25.617
			c23.362,0,45.327-9.099,61.847-25.618c16.521-16.521,25.619-38.483,25.619-61.844C376.438,225.601,367.34,203.638,350.819,187.116
			z M340.211,300.198c-13.688,13.688-31.885,21.226-51.24,21.226s-37.553-7.538-51.24-21.225
			c-13.686-13.685-21.224-31.883-21.224-51.237c0-19.355,7.538-37.553,21.224-51.238c13.687-13.687,31.884-21.224,51.24-21.224
			s37.553,7.537,51.24,21.223c13.687,13.688,21.225,31.885,21.225,51.239S353.898,286.512,340.211,300.198z"/>
	</g>
</g>
<g>
</g>
<g>
</g>
<g>
</g>
<g>
</g>
<g>
</g>
<g>
</g>
<g>
</g>
<g>
</g>
<g>
</g>
<g>
</g>
<g>
</g>
<g>
</g>
<g>
</g>
<g>
</g>
<g>
</g>
</svg>
