<svg id="Layer_1" enable-background="new 0 0 511.987 511.987" height="512" viewBox="0 0 511.987 511.987" width="512" xmlns="http://www.w3.org/2000/svg"><g><g><path d="m510.535 306.344c-4.466-14.047-20.031-26.466-43.662-20.538-.057.014-.113.029-.169.044l-98.739 26.616c-3.561-15.508-18.447-26.154-34.599-24.145-5.712.709-25.041 3.456-45.506 6.364-19.469 2.767-39.601 5.627-45.135 6.315-12.202 1.516-28.442.233-45.636-1.126-33.576-2.654-75.363-5.955-112.07 9.757-43.249 18.514-70.829 58.812-84.317 123.196-1.924 9.186.15 18.368 5.692 25.19 4.773 5.876 11.609 9.247 18.753 9.247h100.639c15.139 0 25.274-7.279 29.377-21.07l6.116-11.903 62.279.69c45.938.505 60.495-2.244 103.861-19.633 33.646-13.492 75.646-31.763 109.394-46.443 24.176-10.518 45.055-19.601 52.928-22.56.031-.012.063-.024.095-.036 19.524-7.569 25.191-25.834 20.699-39.965zm-27.885 21.3c-8.379 3.155-28.436 11.88-53.815 22.921-33.629 14.629-75.48 32.836-108.858 46.22-41.068 16.468-52.756 18.682-96.196 18.198l-68.459-.758c-3.772-.079-7.274 2.06-9.005 5.429l-9.396 18.285c-.324.631-.581 1.296-.765 1.981-1.388 5.18-3.136 7.345-10.369 7.345h-100.64c-1.094 0-2.271-.677-3.229-1.856-.817-1.006-2.612-3.846-1.641-8.48 12.052-57.529 35.803-93.154 72.612-108.911 18.925-8.101 39.667-10.414 60.262-10.414 14.418 0 28.764 1.134 42.363 2.208 18.234 1.44 35.458 2.801 49.677 1.036 5.709-.709 25.029-3.455 45.484-6.361 19.478-2.768 39.619-5.63 45.156-6.318 6.297-.782 12.062 3.67 12.844 9.924.248 1.979.906 7.234-12.923 13.575-13.585 6.229-27.469 11.99-41.267 17.125-5.176 1.927-7.811 7.684-5.884 12.86 1.928 5.177 7.687 7.809 12.86 5.884 14.255-5.306 28.597-11.257 42.626-17.689 10.232-4.691 16.472-10.155 20.113-15.653l107.621-29.011c11.858-2.946 17.929 1.792 19.652 7.219 1.665 5.229-.422 11.964-8.823 15.241z"/><path d="m102.65 204.623h89.078c-1.07 4.733-1.635 9.632-1.635 14.633v20.096c0 5.523 4.477 10 10 10h111.818c5.522 0 10-4.477 10-10v-20.096c0-5-.566-9.899-1.636-14.633h89.08c5.522 0 10-4.477 10-10v-20.096c0-21.741-10.534-41.615-28.029-53.879 2.605-5.459 4.067-11.563 4.067-18.003v-15.974c0-23.13-18.817-41.948-41.948-41.948s-41.948 18.818-41.948 41.948v15.975c0 6.441 1.463 12.545 4.068 18.004-7.099 4.975-13.047 11.202-17.614 18.299v-7.549c0-23.131-18.818-41.949-41.949-41.949-23.13 0-41.948 18.818-41.948 41.949v7.549c-4.567-7.098-10.515-13.325-17.614-18.3 2.605-5.459 4.068-11.563 4.068-18.004v-15.974c0-23.13-18.818-41.948-41.948-41.948s-41.948 18.818-41.948 41.948v15.975c0 6.441 1.463 12.545 4.068 18.004-17.495 12.264-28.029 32.137-28.029 53.879v20.096c-.001 5.521 4.476 9.998 9.999 9.998zm199.261 24.729h-91.818v-10.096c0-15.371 8-29.876 20.762-38.33 7.012 5.269 15.721 8.396 25.148 8.396 9.432 0 18.146-3.131 25.16-8.405 12.919 8.473 20.749 22.718 20.749 38.339v10.096zm29.585-142.681c0-12.103 9.846-21.948 21.948-21.948s21.948 9.846 21.948 21.948v15.975c0 12.102-9.846 21.948-21.948 21.948s-21.948-9.846-21.948-21.948zm-3.199 49.527c7.012 5.269 15.721 8.395 25.147 8.395 9.432 0 18.146-3.131 25.16-8.405 12.92 8.473 20.75 22.718 20.75 38.34v10.096h-87.253c-1.386-2.238-2.916-4.388-4.566-6.448v-3.648c0-15.372 8-29.877 20.762-38.33zm-94.243-4.798c0-12.103 9.846-21.949 21.948-21.949 12.103 0 21.949 9.846 21.949 21.949v15.975c0 12.102-9.846 21.948-21.948 21.948s-21.948-9.846-21.948-21.948v-15.975zm-97.443-44.729c0-12.103 9.846-21.948 21.948-21.948s21.948 9.846 21.948 21.948v15.975c0 12.102-9.846 21.948-21.948 21.948s-21.948-9.846-21.948-21.948zm-23.961 87.856c0-15.622 7.831-29.867 20.75-38.34 7.014 5.274 15.728 8.405 25.159 8.405 9.426 0 18.135-3.127 25.147-8.395 12.762 8.454 20.762 22.958 20.762 38.33v3.644c-1.651 2.061-3.181 4.212-4.568 6.452h-87.25z"/><path d="m255.135 361.961h-.007c-5.523 0-9.996 4.477-9.996 10s4.48 10 10.003 10c5.522 0 10-4.477 10-10s-4.478-10-10-10z"/></g></g></svg>