<svg height="512pt" viewBox="0 0 512 512" width="512pt" xmlns="http://www.w3.org/2000/svg"><path d="m316.46875 0c-107.472656 0-194.910156 87.4375-194.910156 194.910156 0 37.488282 10.648437 72.527344 29.0625 102.277344l-150.621094 151.207031 63.605469 63.605469 150.628906-151.214844c29.742187 18.398438 64.765625 29.035156 102.234375 29.035156 107.472656 0 194.910156-87.433593 194.910156-194.910156 0-107.472656-87.433594-194.910156-194.910156-194.910156zm-252.902344 469.550781-21.199218-21.199219 23.730468-23.820312 21.199219 21.199219zm44.890625-45.066406-21.199219-21.199219 81.285157-81.601562c6.515625 7.59375 13.605469 14.679687 21.203125 21.195312zm208.011719-64.648437c-90.9375 0-164.925781-73.984376-164.925781-164.925782 0-90.9375 73.988281-164.925781 164.925781-164.925781 90.941406 0 164.925781 73.988281 164.925781 164.925781 0 90.941406-73.984375 164.925782-164.925781 164.925782zm0 0"/><path d="m316.46875 59.972656c-74.40625 0-134.9375 60.535156-134.9375 134.9375 0 74.40625 60.53125 134.9375 134.9375 134.9375s134.9375-60.53125 134.9375-134.9375c0-74.402344-60.53125-134.9375-134.9375-134.9375zm0 239.890625c-57.871094 0-104.953125-47.082031-104.953125-104.953125s47.082031-104.953125 104.953125-104.953125 104.953125 47.082031 104.953125 104.953125-47.082031 104.953125-104.953125 104.953125zm0 0"/><path d="m301.476562 218.6875-34.378906-34.378906-21.203125 21.203125 55.582031 55.582031 85.566407-85.566406-21.203125-21.203125zm0 0"/></svg>