<svg id="Layer_1" enable-background="new 0 0 512 512" height="512" viewBox="0 0 512 512" width="512" xmlns="http://www.w3.org/2000/svg"><g><path d="m212.579 199.683c-4.142 0-7.5 3.358-7.5 7.5v92.643c0 4.142 3.358 7.5 7.5 7.5h173.798c4.142 0 7.5-3.358 7.5-7.5v-173.96c0-4.142-3.358-7.5-7.5-7.5h-173.798c-4.142 0-7.5 3.358-7.5 7.5v46.473c0 4.142 3.358 7.5 7.5 7.5s7.5-3.358 7.5-7.5v-38.973h44.276v72.795c0 2.582 1.328 4.982 3.515 6.354 2.188 1.371 4.925 1.523 7.25.398l24.358-11.778 24.358 11.778c1.034.5 2.151.748 3.264.748 1.388 0 2.772-.385 3.986-1.146 2.187-1.372 3.515-3.772 3.515-6.354v-72.795h44.276v158.96h-158.798v-85.143c0-4.142-3.358-7.5-7.5-7.5zm107.021-5.48-16.858-8.151c-1.031-.499-2.148-.748-3.265-.748s-2.234.25-3.265.748l-16.858 8.151v-60.838h40.246z"/><path d="m322.83 258.373c4.142 0 7.5-3.358 7.5-7.5s-3.358-7.5-7.5-7.5h-46.704c-4.142 0-7.5 3.358-7.5 7.5s3.358 7.5 7.5 7.5z"/><path d="m280.244 388.797c6.344.685 12.814 1.031 19.233 1.031 97.807 0 177.378-79.557 177.378-177.345s-79.571-177.345-177.378-177.345-177.378 79.557-177.378 177.345c0 38.101 11.904 74.413 34.425 105.01 22.066 29.98 52.335 51.94 87.535 63.505 3.933 1.294 8.173-.849 9.466-4.784 1.292-3.935-.849-8.173-4.785-9.466-32.218-10.585-59.929-30.692-80.136-58.146-20.611-28.002-31.505-61.24-31.505-96.119 0-89.518 72.843-162.345 162.378-162.345s162.378 72.828 162.378 162.345-72.843 162.345-162.378 162.345c-5.884 0-11.813-.318-17.625-.944-4.118-.448-7.816 2.534-8.261 6.652s2.535 7.817 6.653 8.261z"/><path d="m453.32 65.886c-2.858-2.998-7.606-3.111-10.604-.252-2.998 2.858-3.11 7.605-.252 10.604 35.168 36.882 54.536 85.268 54.536 136.245 0 108.893-88.608 197.483-197.523 197.483s-197.523-88.59-197.523-197.483 88.609-197.483 197.523-197.483c43.356 0 84.502 13.776 118.989 39.84 3.306 2.498 8.009 1.843 10.505-1.461 2.498-3.305 1.843-8.008-1.461-10.505-37.113-28.049-81.386-42.874-128.033-42.874-117.185 0-212.522 95.319-212.522 212.483 0 55.982 21.766 106.977 57.281 144.969l-11.518 11.516c-8.605-4.418-19.343-3.257-26.871 3.607l-13.667 12.46c-3.061 2.791-3.28 7.534-.489 10.595 2.79 3.061 7.534 3.279 10.595.489l13.667-12.46c3.477-3.17 8.807-3.047 12.135.279 3.327 3.326 3.449 8.653.28 12.128l-70.028 76.777-19.176-19.172 37.849-34.509c3.061-2.791 3.28-7.534.489-10.595-2.791-3.062-7.535-3.28-10.595-.489l-57.192 52.144c-6.07 5.535-9.518 13.105-9.707 21.317s2.906 15.933 8.715 21.74c5.642 5.64 13.087 8.721 21.033 8.721.236 0 .473-.003.71-.008 8.212-.189 15.783-3.635 21.318-9.704l87.666-96.113c6.771-7.425 7.994-17.97 3.786-26.513l11.619-11.616c37.96 35.302 88.813 56.921 144.622 56.921 117.186-.001 212.523-95.321 212.523-212.484 0-54.85-20.839-106.912-58.68-146.597zm-423.199 431.11c-4.065.078-7.909-1.442-10.792-4.324s-4.418-6.713-4.325-10.788c.094-4.075 1.804-7.832 4.817-10.578l8.246-7.518 20.153 20.149-7.518 8.243c-2.747 3.012-6.505 4.722-10.581 4.816z"/></g></svg>